PERFORMER "Pete Tong & Scott Bradford"
TITLE "Essential Mix (2006-10-22) (Live @ Shindig (Digital), Newcastle)"
FILE "Essential Mix 2006.10.22 - Pete Tong & Scott Bradford Live From Shindig.mp3" MP3
  TRACK 01 AUDIO
    PERFORMER "Essential Mix"
    TITLE "Intro"
    INDEX 01 00:00:00
  TRACK 02 AUDIO
    PERFORMER "Peter Heller vs. Atrium"
    TITLE "Simpler vs. In Love With You"
    INDEX 01 00:57:64
  TRACK 03 AUDIO
    PERFORMER "Bodyrox vs. ID"
    TITLE "Yeah Yeah (Pearn & Bridges Dub) vs. ID"
    INDEX 01 12:44:70
  TRACK 04 AUDIO
    PERFORMER "Dada feat. Sandy Rivera"
    TITLE "Lollypop"
    INDEX 01 16:48:61
  TRACK 05 AUDIO
    PERFORMER "Audio Bullys"
    TITLE "Drop It"
    INDEX 01 24:11:27
  TRACK 06 AUDIO
    PERFORMER "Sasha & Charlie May"
    TITLE "Seal Clubbing (James Zabiela Mix)"
    INDEX 01 31:07:46
  TRACK 07 AUDIO
    PERFORMER "Orange Bud"
    TITLE "The Riddle"
    INDEX 01 38:45:13
  TRACK 08 AUDIO
    PERFORMER "Audiojack"
    TITLE "Robot"
    INDEX 01 43:16:10
  TRACK 09 AUDIO
    PERFORMER "Electrico"
    TITLE "Love In A New Wave (Aldrin & Aiken Remix)"
    INDEX 01 50:41:37
  TRACK 10 AUDIO
    PERFORMER "Faithless"
    TITLE "Bombs (Benny Benassi Mix)"
    INDEX 01 57:43:30
  TRACK 11 AUDIO
    PERFORMER "Lexicon Avenue"
    TITLE "That Acid Track (Rene Amesz Remix)"
    INDEX 01 64:17:13
  TRACK 12 AUDIO
    PERFORMER "Booka Shade"
    TITLE "NY Rooms (Tommy Boy Edit)"
    INDEX 01 70:47:17
  TRACK 13 AUDIO
    PERFORMER "Nic Fanciulli"
    TITLE "Lucky Heather"
    INDEX 01 77:02:18
  TRACK 14 AUDIO
    PERFORMER "Funkagenda & Punkrok"
    TITLE "Ding Dong"
    INDEX 01 84:02:13
  TRACK 15 AUDIO
    PERFORMER "MYNC Project & Danny Rampling"
    TITLE "Strobelight (Sharam Re-Edit)"
    INDEX 01 89:32:04
  TRACK 16 AUDIO
    PERFORMER "Lexicon Avenue"
    TITLE "That Acid Track"
    INDEX 01 95:39:31
  TRACK 17 AUDIO
    PERFORMER "Nick & Danny Chatelain"
    TITLE "Morocco"
    INDEX 01 101:16:484
  TRACK 18 AUDIO
    PERFORMER "Innercity"
    TITLE "Good Life (Eric Prydz's Summer 2006 Edit)"
    INDEX 01 109:12:27
  TRACK 19 AUDIO
    PERFORMER "Scissor Sisters"
    TITLE "Comfortably Numb (Paper Faces Remix)"
    INDEX 01 118:15:64